<?xml version="1.0" standalone="no"?>
<!DOCTYPE svg PUBLIC "-//W3C//DTD SVG 20010904//EN"
 "http://www.w3.org/TR/2001/REC-SVG-20010904/DTD/svg10.dtd">
<svg version="1.0" xmlns="http://www.w3.org/2000/svg"
 width="300.000000pt" height="137.000000pt" viewBox="0 0 300.000000 137.000000"
 preserveAspectRatio="xMidYMid meet">
<metadata>
Created by potrace 1.10, written by Peter Selinger 2001-2011
</metadata>
<g transform="translate(0.000000,137.000000) scale(0.100000,-0.100000)"
fill="#000000" stroke="none">
<path d="M284 1096 c-22 -18 -28 -32 -28 -62 0 -35 7 -45 105 -137 57 -55 132
-124 166 -154 l62 -54 43 47 c24 25 45 50 46 55 2 5 -40 57 -95 116 -204 221
-195 213 -235 213 -24 0 -46 -8 -64 -24z m134 -91 c45 -51 58 -83 36 -92 -29
-11 -124 68 -124 102 0 51 38 47 88 -10z"/>
<path d="M969 1043 c-42 -43 -148 -157 -235 -253 -316 -349 -498 -570 -475
-578 29 -10 264 188 711 596 190 174 200 185 200 225 0 49 -38 87 -87 87 -35
0 -46 -8 -114 -77z m125 -15 c8 -14 4 -24 -23 -52 -37 -38 -97 -74 -107 -64
-23 23 63 141 99 136 11 -2 25 -11 31 -20z"/>
<path d="M2670 918 c-43 -59 -148 -235 -203 -338 -47 -90 -92 -135 -143 -146
-90 -18 -81 133 14 234 36 38 58 43 47 10 -4 -13 -8 -43 -9 -68 -2 -83 41 -54
69 46 8 31 -38 84 -74 84 -68 0 -151 -93 -174 -195 -9 -37 -23 -75 -33 -86
-38 -42 -84 -31 -84 22 0 25 81 197 114 241 7 10 28 19 47 22 40 4 49 22 17
36 -20 10 -23 17 -20 51 7 66 -12 68 -49 5 -31 -52 -36 -56 -71 -56 -28 0 -38
-4 -38 -16 0 -9 9 -18 20 -21 11 -3 20 -9 20 -13 0 -14 -110 -235 -127 -256
-22 -27 -60 -47 -73 -39 -19 12 -10 45 34 129 24 46 45 95 46 108 4 47 0 60
-17 56 -11 -2 -43 -52 -84 -133 -69 -136 -105 -178 -137 -159 -33 21 -26 64
28 169 65 128 70 134 111 139 40 4 49 22 17 36 -20 10 -23 17 -20 51 7 66 -12
68 -49 5 -31 -52 -36 -56 -71 -56 -28 0 -38 -4 -38 -16 0 -9 9 -18 20 -21 11
-3 20 -9 20 -13 0 -5 -19 -47 -41 -94 -52 -107 -59 -160 -29 -198 27 -35 84
-38 123 -8 l26 21 11 -21 c17 -31 89 -28 129 6 l31 26 21 -26 c28 -35 86 -36
126 -2 l28 24 22 -24 c18 -19 32 -24 73 -24 28 0 65 7 82 16 30 15 32 15 45
-2 16 -21 13 -24 56 61 19 39 49 89 66 112 31 43 107 101 117 90 4 -3 -10 -32
-29 -64 -66 -109 -73 -192 -19 -211 44 -15 81 -3 123 39 30 30 39 47 39 71
l-1 33 -17 -24 c-34 -48 -92 -103 -104 -99 -29 10 -19 59 27 144 49 92 56 137
22 158 -14 9 -26 6 -57 -10 l-39 -22 36 57 c56 86 73 122 73 158 0 48 -16 49
-50 1z"/>
<path d="M1602 914 c-55 -16 -139 -80 -176 -133 -37 -53 -46 -126 -20 -165 9
-15 50 -50 91 -77 40 -27 73 -56 73 -63 0 -7 -12 -18 -26 -25 -35 -16 -87 -1
-150 44 -45 33 -114 49 -114 27 0 -17 77 -82 120 -101 79 -36 168 -20 205 35
30 47 17 74 -63 127 -79 52 -95 76 -79 122 14 38 93 117 145 144 40 20 82 28
82 14 0 -3 -16 -35 -36 -70 -24 -44 -34 -73 -32 -95 5 -49 24 -44 63 18 57 88
59 100 33 153 -27 53 -54 64 -116 45z"/>
<path d="M2007 813 c-13 -12 -7 -60 8 -73 22 -18 45 -5 45 28 0 39 -32 67 -53
45z"/>
<path d="M790 592 c-28 -25 -41 -43 -36 -51 13 -21 297 -261 354 -299 29 -19
55 -32 58 -29 10 9 -72 118 -196 262 -61 72 -117 136 -124 143 -10 10 -21 5
-56 -26z"/>
</g>
</svg>
